<?xml version="1.0" encoding="UTF-8" ?>
<!DOCTYPE svg PUBLIC "-//W3C//DTD SVG 1.1//EN" "http://www.w3.org/Graphics/SVG/1.1/DTD/svg11.dtd">
<svg width="512pt" height="512pt" viewBox="0 0 512 512" version="1.1" xmlns="http://www.w3.org/2000/svg">
/* assistive technology: Title icon */
<title>Ethereum remix-IDE Logo</title>
/*assistive technology: description logo and text*/
<desc>The Ethereum Icon Colour, A Rhombus, predominant gray and black colors, just below the text R.E.M.I.X in gray, </desc>
<path fill="#000000" stroke="#000000" stroke-width="0.09375" opacity="0.56" d=" M 255.1 0.0 L 256.2 0.0 L 256.6 0.7 C 255.0 42.8 257.1 85.0 255.3 127.1 C 254.7 85.3 255.2 43.5 254.8 1.7 C 254.9 1.3 255.0 0.4 255.1 0.0 Z" />
<path fill="#000000" stroke="#000000" stroke-width="0.09375" opacity="0.80" d=" M 255.3 127.1 C 257.1 85.0 255.0 42.8 256.6 0.7 C 291.3 58.7 326.4 116.5 361.2 174.4 C 332.3 161.1 303.2 148.1 274.2 134.8 C 268.3 132.1 262.4 129.5 256.4 127.2 C 255.7 163.2 256.0 199.2 256.1 235.2 C 253.9 199.2 255.2 163.1 255.3 127.1 Z" />
<path fill="#000000" stroke="#000000" stroke-width="0.09375" opacity="0.45" d=" M 150.7 174.4 C 185.2 116.7 220.0 59.2 254.8 1.7 C 255.2 43.5 254.7 85.3 255.3 127.1 C 220.3 142.5 185.6 158.7 150.7 174.4 Z" />
<path fill="#000000" stroke="#000000" stroke-width="0.09375" opacity="0.78" d=" M 150.7 174.4 C 185.6 158.7 220.3 142.5 255.3 127.1 C 255.2 163.1 253.9 199.2 256.1 235.2 C 256.2 235.6 256.2 236.5 256.2 237.0 C 238.3 227.1 220.9 216.1 203.1 205.9 C 185.7 195.3 167.8 185.5 150.7 174.4 Z" />
<path fill="#000000" stroke="#000000" stroke-width="0.09375" opacity="0.91" d=" M 256.4 127.2 C 262.4 129.5 268.3 132.1 274.2 134.8 C 303.2 148.1 332.3 161.1 361.2 174.4 C 347.0 184.0 331.7 192.1 317.0 201.1 C 296.8 213.0 276.5 225.1 256.2 237.0 C 256.2 236.5 256.2 235.6 256.1 235.2 C 256.0 199.2 255.7 163.2 256.4 127.2 Z" />
<path fill="#000000" stroke="#000000" stroke-width="0.09375" opacity="0.20" d=" M 152.2 197.2 C 150.4 200.0 149.2 194.3 151.9 196.5 L 152.2 197.2 Z" />
<path fill="#000000" stroke="#000000" stroke-width="0.09375" opacity="0.35" d=" M 360.1 196.6 C 362.7 194.2 361.9 200.0 359.9 197.3 L 360.1 196.6 Z" />
<path fill="#000000" stroke="#000000" stroke-width="0.09375" opacity="0.44" d=" M 151.9 196.5 C 186.3 217.1 220.9 237.6 255.6 257.7 C 254.8 286.2 254.4 314.7 255.5 343.1 C 237.3 320.4 221.7 295.8 204.6 272.4 C 188.6 250.9 174.0 228.5 158.0 207.0 C 155.8 203.9 153.5 200.8 152.2 197.2 L 151.9 196.5 Z" />
<path fill="#000000" stroke="#000000" stroke-width="0.09375" opacity="0.79" d=" M 255.7 258.4 C 290.5 237.8 325.5 217.5 360.1 196.6 L 359.9 197.3 C 359.3 199.4 358.5 201.5 356.7 202.8 C 355.8 203.3 355.2 204.0 355.0 205.0 C 351.3 211.6 347.0 218.3 341.5 223.6 C 340.6 224.1 340.0 224.8 339.8 225.8 C 338.8 228.9 337.1 231.7 334.7 233.8 C 333.8 234.3 333.2 235.0 333.0 236.0 C 327.6 244.9 321.6 253.9 314.5 261.6 C 313.6 262.1 313.0 262.8 312.8 263.9 C 311.8 266.9 310.1 269.7 307.7 271.8 C 306.8 272.3 306.2 273.0 306.0 274.0 C 302.3 280.6 298.0 287.3 292.5 292.6 C 291.6 293.1 291.0 293.8 290.8 294.8 C 289.8 297.9 288.1 300.7 285.7 302.8 C 284.8 303.3 284.2 304.0 284.0 305.0 C 278.6 314.0 272.5 322.9 265.5 330.7 C 264.6 331.2 264.1 332.0 263.9 333.0 L 263.6 333.7 C 262.8 334.3 262.3 335.0 262.1 336.0 C 261.4 337.9 260.3 339.6 258.6 340.8 C 257.7 341.2 257.1 341.9 256.7 342.9 C 256.5 343.4 256.0 344.5 255.8 345.0 C 256.1 316.2 256.4 287.3 255.7 258.4 Z" />
<path fill="#000000" stroke="#000000" stroke-width="0.09375" opacity="0.23" d=" M 355.0 205.0 C 355.2 204.0 355.8 203.3 356.7 202.8 C 357.3 204.6 356.8 205.3 355.0 205.0 Z" />
<path fill="#000000" stroke="#000000" stroke-width="0.09375" opacity="0.56" d=" M 339.8 225.8 C 340.0 224.8 340.6 224.1 341.5 223.6 C 342.2 225.3 341.6 226.0 339.8 225.8 Z" />
<path fill="#000000" stroke="#000000" stroke-width="0.09375" opacity="0.23" d=" M 333.0 236.0 C 333.2 235.0 333.8 234.3 334.7 233.8 C 335.3 235.5 334.8 236.2 333.0 236.0 Z" />
<path fill="#000000" stroke="#000000" stroke-width="0.09375" opacity="0.56" d=" M 255.6 257.7 L 255.7 258.4 C 256.4 287.3 256.1 316.2 255.8 345.0 C 255.7 344.5 255.5 343.6 255.5 343.1 C 254.4 314.7 254.8 286.2 255.6 257.7 Z" />
<path fill="#000000" stroke="#000000" stroke-width="0.09375" opacity="0.56" d=" M 312.8 263.9 C 313.0 262.8 313.6 262.1 314.5 261.6 C 315.2 263.3 314.6 264.0 312.8 263.9 Z" />
<path fill="#000000" stroke="#000000" stroke-width="0.09375" opacity="0.23" d=" M 306.0 274.0 C 306.2 273.0 306.8 272.3 307.7 271.8 C 308.3 273.5 307.8 274.2 306.0 274.0 Z" />
<path fill="#000000" stroke="#000000" stroke-width="0.09375" opacity="0.56" d=" M 290.8 294.8 C 291.0 293.8 291.6 293.1 292.5 292.6 C 293.2 294.3 292.6 295.0 290.8 294.8 Z" />
<path fill="#000000" stroke="#000000" stroke-width="0.09375" opacity="0.23" d=" M 284.0 305.0 C 284.2 304.0 284.8 303.3 285.7 302.8 C 286.3 304.5 285.8 305.2 284.0 305.0 Z" />
<path fill="#000000" stroke="#000000" stroke-width="0.09375" opacity="0.56" d=" M 263.9 333.0 C 264.1 332.0 264.6 331.2 265.5 330.7 C 266.2 332.3 265.7 333.1 263.9 333.0 Z" />
<path fill="#000000" stroke="#000000" stroke-width="0.09375" opacity="0.23" d=" M 262.1 336.0 C 262.3 335.0 262.8 334.3 263.6 333.7 C 264.4 335.4 263.9 336.2 262.1 336.0 Z" />
<path fill="#000000" stroke="#000000" stroke-width="0.09375" opacity="0.23" d=" M 256.7 342.9 C 257.1 341.9 257.7 341.2 258.6 340.8 C 259.1 342.5 258.5 343.2 256.7 342.9 Z" />
<path fill="#1c1b1c" stroke="#1c1b1c" stroke-width="0.09375" opacity="0.44" d=" M 130.0 427.9 C 130.9 426.9 131.9 426.6 133.1 427.1 L 133.1 427.9 C 132.3 427.9 130.8 427.9 130.0 427.9 Z" />
<path fill="#323133" stroke="#323133" stroke-width="0.09375" opacity="0.79" d=" M 133.1 427.1 C 133.8 427.0 135.1 426.9 135.8 426.8 C 135.3 428.0 134.4 428.4 133.1 427.9 L 133.1 427.1 Z" />
<path fill="#3f3e40" stroke="#3f3e40" stroke-width="0.09375" opacity="0.98" d=" M 135.8 426.8 C 137.1 427.0 138.5 427.1 139.8 427.3 C 140.9 428.3 142.0 428.4 143.2 427.6 C 147.9 428.9 152.5 430.3 157.1 431.5 C 157.0 433.0 157.6 433.7 159.2 433.8 L 159.8 434.0 C 159.8 435.9 161.7 436.8 163.3 437.1 C 164.1 438.0 165.0 438.9 165.8 439.8 C 166.2 441.5 167.4 443.3 169.4 443.0 C 172.8 450.1 175.9 457.4 177.4 465.2 C 176.6 467.2 176.1 469.8 178.0 471.3 C 176.6 471.9 175.3 472.5 174.0 472.9 C 151.7 473.7 129.4 472.0 107.1 473.6 L 106.7 474.3 C 106.4 474.6 106.0 475.3 105.8 475.7 C 105.0 476.9 105.1 478.0 106.3 479.0 C 108.0 483.0 109.8 486.9 111.8 490.8 C 111.9 492.2 112.7 493.0 114.1 493.3 C 115.3 494.5 116.6 495.6 117.8 496.8 C 118.4 498.3 119.4 499.8 121.1 500.3 C 124.4 501.8 127.7 503.2 130.8 504.9 C 132.0 505.6 133.0 505.5 134.1 504.6 C 136.7 504.5 139.3 504.5 142.0 504.5 C 142.9 505.5 144.0 505.7 145.2 505.1 C 149.4 503.1 153.8 501.4 157.7 498.8 C 160.5 496.9 162.6 494.3 164.8 491.8 L 165.2 491.3 C 166.6 491.0 167.2 490.2 167.2 488.9 C 168.9 489.1 170.5 489.3 172.2 489.5 C 171.2 493.1 170.0 496.7 168.7 500.2 C 166.7 500.0 165.5 501.7 165.0 503.4 C 159.2 507.0 153.1 510.1 146.5 512.0 L 133.0 512.0 C 132.2 510.6 131.2 510.4 129.9 511.3 C 125.4 510.1 121.1 508.3 116.9 506.2 C 117.2 504.5 115.9 502.9 114.2 502.7 C 113.7 502.5 112.8 502.2 112.3 502.0 C 111.8 500.5 110.8 500.0 109.5 500.4 C 105.5 492.6 99.2 485.4 98.7 476.3 C 98.6 472.4 98.6 468.6 98.9 464.8 C 100.0 457.5 103.0 450.6 105.5 443.7 C 106.9 444.0 107.8 443.4 108.1 441.9 C 110.0 439.9 111.9 438.0 113.8 436.2 C 115.3 436.0 116.1 435.2 116.2 433.8 C 120.8 431.8 125.4 429.8 130.0 427.9 C 130.8 427.9 132.3 427.9 133.1 427.9 C 134.4 428.4 135.3 428.0 135.8 426.8 M 131.5 435.2 C 127.4 435.9 123.2 437.3 120.3 440.4 C 118.6 440.0 117.9 440.6 118.3 442.4 C 118.0 442.7 117.4 443.3 117.2 443.6 C 115.2 442.2 112.3 445.4 113.8 447.2 C 110.1 451.0 107.6 456.1 107.3 461.4 C 105.6 461.8 105.4 462.7 106.5 464.0 C 106.1 464.4 105.4 465.2 105.1 465.5 C 126.5 466.4 147.9 466.2 169.3 465.5 C 171.4 465.7 170.6 461.7 168.7 462.6 C 168.3 458.3 167.2 453.9 164.4 450.5 C 165.3 448.9 164.9 448.1 163.1 448.0 L 163.0 447.2 C 161.5 444.6 159.3 442.6 156.7 441.1 C 152.7 438.1 148.1 435.6 143.2 434.6 C 140.0 434.4 136.9 434.3 133.7 434.2 C 132.3 433.2 131.5 433.5 131.5 435.2 Z" />
<path fill="#2e2d2f" stroke="#2e2d2f" stroke-width="0.09375" opacity="0.73" d=" M 139.8 427.3 C 141.0 426.6 142.2 426.7 143.2 427.6 C 142.0 428.4 140.9 428.3 139.8 427.3 Z" />
<path fill="#1c1b1c" stroke="#1c1b1c" stroke-width="0.09375" opacity="0.44" d=" M 240.0 428.1 C 239.6 426.4 242.6 426.1 243.3 427.4 L 243.3 428.0 C 242.2 428.1 241.1 428.1 240.0 428.1 Z" />
<path fill="#302f31" stroke="#302f31" stroke-width="0.09375" opacity="0.75" d=" M 243.3 427.4 C 244.4 426.3 245.6 426.3 246.7 427.4 L 246.7 428.0 C 245.6 428.0 244.4 428.0 243.3 428.0 L 243.3 427.4 Z" />
<path fill="#1c1b1c" stroke="#1c1b1c" stroke-width="0.09375" opacity="0.44" d=" M 246.7 427.4 C 247.4 426.1 250.4 426.3 250.0 428.1 C 248.9 428.1 247.8 428.1 246.7 428.0 L 246.7 427.4 Z" />
<path fill="#2a292b" stroke="#2a292b" stroke-width="0.09375" opacity="0.66" d=" M 300.9 427.7 C 302.3 426.1 305.3 426.1 306.9 427.5 L 306.9 428.0 C 305.4 428.0 302.5 428.0 301.0 428.0 L 300.9 427.7 Z" />
<path fill="#1a1a1a" stroke="#1a1a1a" stroke-width="0.09375" opacity="0.41" d=" M 306.9 427.5 C 307.5 426.1 310.6 426.3 310.2 428.1 C 309.1 428.1 308.0 428.1 306.9 428.0 L 306.9 427.5 Z" />
<path fill="#0c0c0c" stroke="#0c0c0c" stroke-width="0.09375" opacity="0.19" d=" M 37.0 428.8 C 36.9 426.9 40.4 427.9 39.2 429.5 C 38.7 429.3 37.6 429.0 37.0 428.8 Z" />
<path fill="#0d0d0d" stroke="#0d0d0d" stroke-width="0.09375" opacity="0.20" d=" M 68.5 429.2 C 68.0 427.0 72.2 427.3 71.4 429.4 C 70.4 429.3 69.4 429.3 68.5 429.2 Z" />
<path fill="#3f3e40" stroke="#3f3e40" stroke-width="0.09375" opacity="0.98" d=" M 225.0 434.0 C 229.4 430.8 234.6 428.6 240.0 428.1 C 241.1 428.1 242.2 428.1 243.3 428.0 C 244.4 428.0 245.6 428.0 246.7 428.0 C 247.8 428.1 248.9 428.1 250.0 428.1 C 254.6 428.4 259.0 430.4 262.8 433.0 C 264.8 435.1 266.9 437.2 268.9 439.3 C 270.9 442.0 272.1 445.2 273.8 448.1 C 275.6 445.5 277.2 442.8 279.2 440.5 C 281.6 438.0 283.9 435.5 286.3 433.1 C 290.6 430.0 295.8 428.1 301.0 428.0 C 302.5 428.0 305.4 428.0 306.9 428.0 C 308.0 428.1 309.1 428.1 310.2 428.1 C 313.6 428.3 317.0 429.4 319.7 431.4 C 320.3 432.2 321.1 432.7 322.1 432.9 C 322.6 433.1 323.5 433.6 323.9 433.8 C 325.7 435.5 327.5 437.3 329.1 439.1 C 333.1 445.3 335.3 452.5 336.2 459.8 C 336.1 475.8 335.8 491.9 336.4 507.9 L 336.4 509.4 C 335.7 509.4 334.1 509.5 333.4 509.6 C 332.8 509.7 331.7 510.0 331.1 510.1 L 330.0 510.7 L 330.0 509.4 C 329.9 493.5 330.5 477.6 329.3 461.7 C 328.5 454.9 325.9 448.5 323.0 442.4 C 322.5 440.8 321.2 439.6 319.6 439.0 C 316.2 437.4 312.8 435.7 309.2 434.9 C 306.0 434.6 302.9 434.4 299.8 434.7 C 296.3 435.6 293.0 437.0 290.0 438.9 C 288.0 440.3 286.2 442.0 284.8 444.0 C 280.4 451.0 279.4 459.5 276.2 467.0 C 275.7 468.0 275.7 469.0 276.2 470.0 C 276.0 482.7 276.0 495.5 276.3 508.2 C 276.3 508.7 276.3 509.7 276.3 510.2 C 274.3 510.4 272.2 510.5 270.2 510.7 C 269.9 494.0 270.6 477.3 269.4 460.6 C 268.2 455.0 267.0 449.2 263.9 444.2 C 262.3 441.8 260.2 439.7 257.7 438.1 C 255.4 436.7 252.8 435.6 250.1 435.0 C 246.3 434.8 242.6 434.7 238.8 434.9 C 235.8 435.6 233.0 437.1 230.0 438.0 C 229.0 438.1 228.3 438.7 227.8 439.6 C 226.8 440.8 225.7 441.9 224.5 442.9 C 223.5 443.7 222.5 444.7 222.2 446.0 C 219.9 451.9 218.2 458.1 216.3 464.2 C 215.7 465.3 215.8 466.6 216.1 467.9 C 216.0 481.7 216.0 495.5 216.0 509.3 L 216.0 510.5 L 214.7 510.0 C 214.2 510.0 213.0 509.9 212.5 509.8 C 211.8 510.0 210.5 510.2 209.8 510.3 C 209.8 509.7 209.8 508.4 209.8 507.8 C 210.0 482.3 210.4 456.7 209.6 431.2 L 209.5 430.1 C 211.5 429.5 213.5 428.9 215.5 428.4 C 215.7 433.6 215.9 438.8 216.1 444.0 C 216.8 443.1 217.6 442.2 218.3 441.2 L 218.9 440.5 C 220.9 438.3 222.9 436.1 225.0 434.0 Z" />
<path fill="#1c1c1c" stroke="#1c1c1c" stroke-width="0.09375" opacity="0.44" d=" M 472.5 429.4 C 471.6 427.6 475.3 427.1 474.8 429.0 C 474.3 429.1 473.1 429.3 472.5 429.4 Z" />
<path fill="#323133" stroke="#323133" stroke-width="0.09375" opacity="0.78" d=" M 35.9 432.0 C 34.5 431.3 35.3 428.4 37.0 428.8 C 37.3 430.0 36.5 431.1 35.9 432.0 Z" />
<path fill="#403f41" stroke="#403f41" stroke-width="0.09375" opacity="1.00" d=" M 37.0 428.8 C 37.6 429.0 38.7 429.3 39.2 429.5 C 40.9 429.4 41.9 430.0 42.1 431.2 C 42.1 435.9 42.0 440.6 42.0 445.3 C 42.7 445.0 43.4 444.8 44.1 444.5 C 45.1 444.2 45.8 443.6 46.1 442.5 C 47.0 440.2 48.7 438.1 51.1 437.1 C 52.1 436.9 52.9 436.4 53.4 435.5 C 57.3 431.6 63.0 429.6 68.5 429.2 C 69.4 429.3 70.4 429.3 71.4 429.4 C 72.1 429.4 73.6 429.6 74.4 429.7 L 73.9 431.5 C 73.9 432.1 74.0 433.3 74.0 433.9 C 72.8 433.6 71.8 434.4 70.9 435.1 C 66.5 437.6 61.6 439.1 56.9 440.8 C 55.8 441.0 55.1 441.5 54.6 442.5 C 50.0 448.0 46.5 454.4 43.4 461.0 C 42.8 461.8 42.6 462.8 42.8 463.8 C 42.7 464.6 42.4 466.2 42.2 467.0 C 41.8 468.0 41.8 469.0 42.3 470.0 C 42.0 482.5 42.1 495.1 42.0 507.6 C 42.0 508.3 42.0 509.6 41.9 510.2 C 40.2 510.1 38.4 510.1 36.7 510.0 C 37.1 508.8 36.4 507.8 35.8 506.8 C 33.7 488.4 35.6 469.6 34.9 451.0 C 35.5 444.8 33.5 438.0 35.9 432.0 C 36.5 431.1 37.3 430.0 37.0 428.8 Z" />
<path fill="#1c1c1d" stroke="#1c1c1d" stroke-width="0.09375" opacity="0.44" d=" M 215.5 428.4 C 216.5 432.7 217.2 437.0 218.3 441.2 C 217.6 442.2 216.8 443.1 216.1 444.0 C 215.9 438.8 215.7 433.6 215.5 428.4 Z" />
<path fill="#302f31" stroke="#302f31" stroke-width="0.09375" opacity="0.75" d=" M 375.0 436.9 C 373.4 432.6 376.6 430.1 379.3 427.7 L 379.0 428.5 C 375.6 435.8 376.0 444.1 375.8 452.0 C 375.8 470.7 376.8 489.5 375.1 508.1 L 375.0 508.9 C 375.1 484.9 374.7 460.9 375.0 436.9 Z" />
<path fill="#3f3e40" stroke="#3f3e40" stroke-width="0.09375" opacity="0.97" d=" M 419.0 429.0 C 420.8 429.0 422.6 428.9 424.4 428.9 C 423.9 429.9 424.2 430.7 425.2 431.4 C 425.7 431.8 426.5 432.6 427.0 433.1 C 427.3 434.0 427.9 434.7 428.8 435.2 L 429.1 435.8 C 429.3 436.8 429.8 437.6 430.7 438.2 C 435.1 443.4 438.6 449.5 442.0 455.5 C 442.4 456.6 443.2 457.0 444.3 456.7 L 444.0 458.0 C 443.7 459.1 444.1 459.9 445.1 460.4 C 446.0 461.0 446.9 461.6 447.8 462.2 C 449.8 459.9 451.6 457.4 453.9 455.3 C 454.8 454.7 455.2 453.9 454.9 452.8 L 454.7 451.7 C 455.8 452.0 456.5 451.6 457.0 450.4 C 459.1 446.5 461.3 442.5 464.3 439.2 C 465.2 438.7 465.8 438.0 466.1 437.0 C 467.6 434.2 469.2 430.4 472.5 429.4 C 473.1 429.3 474.3 429.1 474.8 429.0 L 476.1 428.7 L 476.0 430.4 C 475.8 431.4 475.8 432.4 475.8 433.4 C 476.1 435.2 475.0 436.7 473.6 437.7 C 472.7 438.2 472.1 439.0 471.9 440.0 L 471.6 440.7 C 470.8 441.3 470.2 442.0 470.0 443.0 C 468.1 446.9 466.0 450.9 462.7 453.8 C 461.8 454.3 461.3 455.0 461.0 456.0 C 459.0 459.9 456.7 463.9 453.2 466.7 C 452.2 467.3 451.9 468.1 452.4 469.1 C 453.3 470.9 454.1 472.7 455.0 474.5 C 455.4 475.6 456.1 476.0 457.2 475.7 L 457.1 476.8 C 456.8 477.9 457.2 478.7 458.2 479.3 C 462.2 483.4 465.3 488.4 468.0 493.5 C 468.4 494.6 469.2 495.0 470.3 494.7 L 470.1 495.8 C 469.8 496.9 470.2 497.7 471.2 498.3 C 473.5 500.1 475.5 502.6 475.6 505.7 C 475.7 506.6 475.8 507.6 476.0 508.6 L 476.2 509.9 L 474.7 509.7 C 474.1 509.8 473.0 509.9 472.4 510.0 L 471.4 510.5 C 468.9 506.7 465.9 503.2 464.0 499.0 C 463.8 498.0 463.2 497.2 462.4 496.7 L 462.1 496.0 C 461.9 495.0 461.3 494.2 460.4 493.7 C 457.0 490.9 454.9 486.9 453.0 483.0 C 452.7 482.0 452.2 481.2 451.4 480.7 L 451.0 479.9 C 450.8 478.9 450.2 478.1 449.3 477.8 C 448.5 477.4 447.8 477.1 447.1 476.7 C 443.5 481.6 441.1 487.6 436.5 491.7 C 435.6 492.2 435.1 493.0 434.9 494.0 L 434.6 494.8 C 433.8 495.3 433.3 496.1 433.1 497.1 L 432.8 497.8 C 431.9 498.3 431.3 499.0 431.0 500.0 C 429.8 503.0 428.0 505.8 425.3 507.6 C 424.3 508.0 423.7 508.7 423.7 509.8 C 423.7 510.2 423.7 510.9 423.7 511.3 C 421.9 510.7 420.2 510.0 418.4 509.4 L 418.8 508.6 C 419.1 507.6 419.3 506.7 419.5 505.8 C 419.7 505.1 420.1 503.8 420.3 503.2 C 421.2 502.7 421.8 502.0 422.1 501.1 C 424.7 496.2 427.6 491.3 431.4 487.3 C 432.3 486.8 432.9 486.0 433.1 485.1 C 435.9 479.7 439.7 474.9 443.0 469.9 C 442.0 467.8 440.9 465.7 440.0 463.5 C 439.6 462.4 438.9 462.0 437.8 462.3 L 437.9 461.1 C 438.2 460.1 437.8 459.3 436.8 458.7 C 434.2 456.8 432.2 454.0 431.0 451.0 C 430.7 450.0 430.2 449.3 429.3 448.8 L 429.0 448.1 C 428.7 447.1 428.1 446.4 427.3 445.9 C 423.8 442.2 420.1 437.8 419.3 432.7 C 419.3 432.1 419.2 431.0 419.2 430.4 C 419.2 430.1 419.1 429.4 419.0 429.0 Z" />
<path fill="#2f2e30" stroke="#2f2e30" stroke-width="0.09375" opacity="0.73" d=" M 424.4 428.9 C 426.0 429.3 426.3 430.1 425.2 431.4 C 424.2 430.7 423.9 429.9 424.4 428.9 Z" />
<path fill="#403f41" stroke="#403f41" stroke-width="0.09375" opacity="1.00" d=" M 375.8 452.0 C 376.0 444.1 375.6 435.8 379.0 428.5 C 380.2 429.7 381.2 431.0 382.2 432.4 C 381.9 457.5 382.1 482.5 382.1 507.6 C 381.5 509.0 380.7 510.4 379.9 511.9 C 379.0 510.9 378.1 510.0 377.2 509.1 C 376.7 508.9 375.6 508.4 375.1 508.1 C 376.8 489.5 375.8 470.7 375.8 452.0 Z" />
<path fill="#0e0e0e" stroke="#0e0e0e" stroke-width="0.09375" opacity="0.23" d=" M 419.3 432.7 C 417.5 433.5 417.3 429.7 419.2 430.4 C 419.2 431.0 419.3 432.1 419.3 432.7 Z" />
<path fill="#2d2c2e" stroke="#2d2c2e" stroke-width="0.09375" opacity="0.70" d=" M 476.0 430.4 C 478.0 429.9 477.8 434.0 475.8 433.4 C 475.8 432.4 475.8 431.4 476.0 430.4 Z" />
<path fill="#0f0f0f" stroke="#0f0f0f" stroke-width="0.09375" opacity="0.25" d=" M 42.1 431.2 L 42.1 430.6 C 42.8 435.2 43.2 439.9 44.1 444.5 C 43.4 444.8 42.7 445.0 42.0 445.3 C 42.0 440.6 42.1 435.9 42.1 431.2 Z" />
<path fill="#0e0e0e" stroke="#0e0e0e" stroke-width="0.09375" opacity="0.23" d=" M 73.9 431.5 C 75.6 430.8 75.7 434.3 74.0 433.9 C 74.0 433.3 73.9 432.1 73.9 431.5 Z" />
<path fill="#1f1f20" stroke="#1f1f20" stroke-width="0.09375" opacity="0.50" d=" M 209.6 430.5 L 209.6 431.2 C 210.4 456.7 210.0 482.3 209.8 507.8 L 209.8 508.6 C 208.4 482.6 208.7 456.5 209.6 430.5 Z" />
<path fill="#151515" stroke="#151515" stroke-width="0.09375" opacity="0.33" d=" M 319.7 431.4 C 321.4 430.6 322.2 431.1 322.1 432.9 C 321.1 432.7 320.3 432.2 319.7 431.4 Z" />
<path fill="#151515" stroke="#151515" stroke-width="0.09375" opacity="0.33" d=" M 157.1 431.5 C 158.4 431.7 159.1 432.5 159.2 433.8 C 157.6 433.7 157.0 433.0 157.1 431.5 Z" />
<path fill="#101010" stroke="#101010" stroke-width="0.09375" opacity="0.25" d=" M 382.2 432.4 L 382.1 431.7 C 383.5 457.2 383.7 482.8 382.0 508.3 L 382.1 507.6 C 382.1 482.5 381.9 457.5 382.2 432.4 Z" />
<path fill="#242425" stroke="#242425" stroke-width="0.09375" opacity="0.56" d=" M 262.8 433.0 C 265.2 434.7 267.3 436.8 268.9 439.3 C 266.9 437.2 264.8 435.1 262.8 433.0 Z" />
<path fill="#262627" stroke="#262627" stroke-width="0.09375" opacity="0.60" d=" M 279.2 440.5 C 280.9 437.4 283.4 434.9 286.3 433.1 C 283.9 435.5 281.6 438.0 279.2 440.5 Z" />
<path fill="#121213" stroke="#121213" stroke-width="0.09375" opacity="0.29" d=" M 427.0 433.1 C 428.8 432.7 429.4 433.4 428.8 435.2 C 427.9 434.7 427.3 434.0 427.0 433.1 Z" />
<path fill="#323133" stroke="#323133" stroke-width="0.09375" opacity="0.78" d=" M 70.9 435.1 C 71.8 434.4 72.8 433.6 74.0 433.9 C 74.5 435.5 71.7 436.5 70.9 435.1 Z" />
<path fill="#2f2e30" stroke="#2f2e30" stroke-width="0.09375" opacity="0.73" d=" M 113.8 436.2 C 114.0 434.8 114.8 434.0 116.2 433.8 C 116.1 435.2 115.3 436.0 113.8 436.2 Z" />
<path fill="#262627" stroke="#262627" stroke-width="0.09375" opacity="0.60" d=" M 131.5 435.2 C 131.5 433.5 132.3 433.2 133.7 434.2 L 133.7 434.9 C 133.2 435.0 132.0 435.1 131.5 435.2 Z" />
<path fill="#121212" stroke="#121212" stroke-width="0.09375" opacity="0.29" d=" M 133.7 434.2 C 136.9 434.3 140.0 434.4 143.2 434.6 C 140.0 434.6 136.9 434.7 133.7 434.9 L 133.7 434.2 Z" />
<path fill="#212021" stroke="#212021" stroke-width="0.09375" opacity="0.51" d=" M 159.8 434.0 C 161.7 433.9 162.7 435.6 163.3 437.1 C 161.7 436.8 159.8 435.9 159.8 434.0 Z" />
<path fill="#0b0b0b" stroke="#0b0b0b" stroke-width="0.09375" opacity="0.18" d=" M 218.9 440.5 C 220.8 438.2 222.8 436.0 225.0 434.0 C 222.9 436.1 220.9 438.3 218.9 440.5 Z" />
<path fill="#242425" stroke="#242425" stroke-width="0.09375" opacity="0.57" d=" M 238.8 434.9 C 242.6 434.7 246.3 434.8 250.1 435.0 C 246.3 434.9 242.6 434.9 238.8 434.9 Z" />
<path fill="#232224" stroke="#232224" stroke-width="0.09375" opacity="0.55" d=" M 299.8 434.7 C 302.9 434.4 306.0 434.6 309.2 434.9 C 306.0 434.8 302.9 434.8 299.8 434.7 Z" />
<path fill="#0d0d0d" stroke="#0d0d0d" stroke-width="0.09375" opacity="0.21" d=" M 323.9 433.8 C 326.0 435.2 327.8 437.0 329.1 439.1 C 327.5 437.3 325.7 435.5 323.9 433.8 Z" />
<path fill="#2f2e30" stroke="#2f2e30" stroke-width="0.09375" opacity="0.73" d=" M 51.1 437.1 C 51.0 435.4 51.7 434.8 53.4 435.5 C 52.9 436.4 52.1 436.9 51.1 437.1 Z" />
<path fill="#151515" stroke="#151515" stroke-width="0.09375" opacity="0.33" d=" M 429.1 435.8 C 430.9 435.7 431.4 436.5 430.7 438.2 C 429.8 437.6 429.3 436.8 429.1 435.8 Z" />
<path fill="#151515" stroke="#151515" stroke-width="0.09375" opacity="0.33" d=" M 464.3 439.2 C 463.7 437.5 464.3 436.8 466.1 437.0 C 465.8 438.0 465.2 438.7 464.3 439.2 Z" />
<path fill="#151515" stroke="#151515" stroke-width="0.09375" opacity="0.33" d=" M 227.8 439.6 C 228.3 438.7 229.0 438.1 230.0 438.0 C 230.2 439.7 229.4 440.3 227.8 439.6 Z" />
<path fill="#1c1c1d" stroke="#1c1c1d" stroke-width="0.09375" opacity="0.45" d=" M 257.7 438.1 C 260.2 439.7 262.3 441.8 263.9 444.2 C 261.6 442.5 259.6 440.4 257.7 438.1 Z" />
<path fill="#2d2d2e" stroke="#2d2d2e" stroke-width="0.09375" opacity="0.71" d=" M 471.9 440.0 C 472.1 439.0 472.7 438.2 473.6 437.7 C 474.2 439.4 473.7 440.1 471.9 440.0 Z" />
<path fill="#333234" stroke="#333234" stroke-width="0.09375" opacity="0.79" d=" M 284.8 444.0 C 286.2 442.0 288.0 440.3 290.0 438.9 C 288.4 440.7 286.6 442.4 284.8 444.0 Z" />
<path fill="#333234" stroke="#333234" stroke-width="0.09375" opacity="0.80" d=" M 319.6 439.0 C 321.2 439.6 322.5 440.8 323.0 442.4 C 321.3 443.4 318.6 440.7 319.6 439.0 Z" />
<path fill="#111111" stroke="#111111" stroke-width="0.09375" opacity="0.27" d=" M 118.3 442.4 C 117.9 440.6 118.6 440.0 120.3 440.4 C 119.9 441.4 119.3 442.0 118.3 442.4 Z" />
<path fill="#232224" stroke="#232224" stroke-width="0.09375" opacity="0.55" d=" M 165.8 439.8 C 167.4 440.3 169.0 441.2 169.4 443.0 C 167.4 443.3 166.2 441.5 165.8 439.8 Z" />
<path fill="#121213" stroke="#121213" stroke-width="0.09375" opacity="0.29" d=" M 54.6 442.5 C 55.1 441.5 55.8 441.0 56.9 440.8 C 57.0 442.6 56.3 443.1 54.6 442.5 Z" />
<path fill="#252425" stroke="#252425" stroke-width="0.09375" opacity="0.57" d=" M 156.7 441.1 C 159.3 442.6 161.5 444.6 163.0 447.2 C 161.0 445.1 158.8 443.1 156.7 441.1 Z" />
<path fill="#141314" stroke="#141314" stroke-width="0.09375" opacity="0.31" d=" M 470.0 443.0 C 470.2 442.0 470.8 441.3 471.6 440.7 C 472.4 442.4 471.8 443.2 470.0 443.0 Z" />
<path fill="#2c2b2d" stroke="#2c2b2d" stroke-width="0.09375" opacity="0.69" d=" M 44.1 444.5 C 43.7 442.8 44.4 442.2 46.1 442.5 C 45.8 443.6 45.1 444.2 44.1 444.5 Z" />
<path fill="#121213" stroke="#121213" stroke-width="0.09375" opacity="0.29" d=" M 105.5 443.7 C 105.9 442.5 106.7 441.8 108.1 441.9 C 107.8 443.4 106.9 444.0 105.5 443.7 Z" />
<path fill="#0a0a0b" stroke="#0a0a0b" stroke-width="0.09375" opacity="0.17" d=" M 113.8 447.2 C 112.3 445.4 115.2 442.2 117.2 443.6 C 116.1 444.9 115.0 446.1 113.8 447.2 Z" />
<path fill="#0d0d0d" stroke="#0d0d0d" stroke-width="0.09375" opacity="0.21" d=" M 222.2 446.0 C 222.5 444.7 223.5 443.7 224.5 442.9 C 225.9 444.3 223.9 447.1 222.2 446.0 Z" />
<path fill="#151515" stroke="#151515" stroke-width="0.09375" opacity="0.33" d=" M 427.3 445.9 C 428.1 446.4 428.7 447.1 429.0 448.1 C 427.1 448.3 426.6 447.5 427.3 445.9 Z" />
<path fill="#151515" stroke="#151515" stroke-width="0.09375" opacity="0.33" d=" M 163.1 448.0 C 164.9 448.1 165.3 448.9 164.4 450.5 C 163.6 449.9 163.1 449.0 163.1 448.0 Z" />
<path fill="#121213" stroke="#121213" stroke-width="0.09375" opacity="0.29" d=" M 429.3 448.8 C 430.2 449.3 430.7 450.0 431.0 451.0 C 429.2 451.2 428.6 450.5 429.3 448.8 Z" />
<path fill="#151515" stroke="#151515" stroke-width="0.09375" opacity="0.33" d=" M 454.7 451.7 C 454.8 450.1 455.5 449.6 457.0 450.4 C 456.5 451.6 455.8 452.0 454.7 451.7 Z" />
<path fill="#2d2d2e" stroke="#2d2d2e" stroke-width="0.09375" opacity="0.71" d=" M 453.9 455.3 C 452.9 453.9 453.3 453.1 454.9 452.8 C 455.2 453.9 454.8 454.7 453.9 455.3 Z" />
<path fill="#151515" stroke="#151515" stroke-width="0.09375" opacity="0.33" d=" M 461.0 456.0 C 461.3 455.0 461.8 454.3 462.7 453.8 C 463.4 455.5 462.8 456.2 461.0 456.0 Z" />
<path fill="#151515" stroke="#151515" stroke-width="0.09375" opacity="0.33" d=" M 442.0 455.5 C 443.4 454.7 444.2 455.1 444.3 456.7 C 443.2 457.0 442.4 456.6 442.0 455.5 Z" />
<path fill="#2d2d2e" stroke="#2d2d2e" stroke-width="0.09375" opacity="0.71" d=" M 444.0 458.0 C 445.6 458.2 446.0 459.0 445.1 460.4 C 444.1 459.9 443.7 459.1 444.0 458.0 Z" />
<path fill="#2d2d2e" stroke="#2d2d2e" stroke-width="0.09375" opacity="0.71" d=" M 436.8 458.7 C 437.8 459.3 438.2 460.1 437.9 461.1 C 436.3 461.0 435.9 460.1 436.8 458.7 Z" />
<path fill="#101010" stroke="#101010" stroke-width="0.09375" opacity="0.25" d=" M 336.2 459.8 C 337.4 476.1 337.5 492.4 336.4 508.7 L 336.4 507.9 C 335.8 491.9 336.1 475.8 336.2 459.8 Z" />
<path fill="#1d1d1d" stroke="#1d1d1d" stroke-width="0.09375" opacity="0.46" d=" M 42.8 463.8 C 42.6 462.8 42.8 461.8 43.4 461.0 C 44.7 462.3 44.5 463.2 42.8 463.8 Z" />
<path fill="#161617" stroke="#161617" stroke-width="0.09375" opacity="0.35" d=" M 106.5 464.0 C 105.4 462.7 105.6 461.8 107.3 461.4 C 107.5 462.4 107.2 463.3 106.5 464.0 Z" />
<path fill="#1f1f20" stroke="#1f1f20" stroke-width="0.09375" opacity="0.49" d=" M 269.4 460.6 C 270.6 477.3 269.9 494.0 270.2 510.7 C 268.1 494.1 268.9 477.3 269.4 460.6 Z" />
<path fill="#1d1c1d" stroke="#1d1c1d" stroke-width="0.09375" opacity="0.45" d=" M 168.7 462.6 C 170.6 461.7 171.4 465.7 169.3 465.5 C 168.9 464.6 168.7 463.6 168.7 462.6 Z" />
<path fill="#2f2e30" stroke="#2f2e30" stroke-width="0.09375" opacity="0.75" d=" M 329.3 461.7 C 330.5 477.6 329.9 493.5 330.0 509.4 C 328.4 493.5 328.9 477.6 329.3 461.7 Z" />
<path fill="#151515" stroke="#151515" stroke-width="0.09375" opacity="0.33" d=" M 437.8 462.3 C 438.9 462.0 439.6 462.4 440.0 463.5 C 438.6 464.3 437.8 463.9 437.8 462.3 Z" />
<path fill="#302f31" stroke="#302f31" stroke-width="0.09375" opacity="0.75" d=" M 216.1 467.9 C 215.8 466.6 215.7 465.3 216.3 464.2 C 217.7 465.0 217.8 466.0 216.7 467.4 L 216.1 467.9 Z" />
<path fill="#1d1d1d" stroke="#1d1d1d" stroke-width="0.09375" opacity="0.45" d=" M 98.7 476.3 C 98.6 472.4 98.7 468.6 98.9 464.8 C 98.6 468.6 98.6 472.4 98.7 476.3 Z" />
<path fill="#111111" stroke="#111111" stroke-width="0.09375" opacity="0.27" d=" M 177.4 465.2 C 177.7 466.7 178.2 469.6 178.5 471.1 L 178.0 471.3 C 176.1 469.8 176.6 467.2 177.4 465.2 Z" />
<path fill="#1e1e1f" stroke="#1e1e1f" stroke-width="0.09375" opacity="0.48" d=" M 42.3 470.0 C 41.8 469.0 41.8 468.0 42.2 467.0 C 42.4 467.6 42.8 468.9 43.0 469.5 L 42.3 470.0 Z" />
<path fill="#323133" stroke="#323133" stroke-width="0.09375" opacity="0.79" d=" M 276.2 470.0 C 275.7 469.0 275.7 468.0 276.2 467.0 C 276.4 467.6 276.7 468.8 276.9 469.4 L 276.2 470.0 Z" />
<path fill="#2d2d2e" stroke="#2d2d2e" stroke-width="0.09375" opacity="0.71" d=" M 452.4 469.1 C 451.9 468.1 452.2 467.3 453.2 466.7 C 454.3 467.9 454.0 468.7 452.4 469.1 Z" />
<path fill="#1f1f20" stroke="#1f1f20" stroke-width="0.09375" opacity="0.50" d=" M 216.1 467.9 L 216.7 467.4 C 217.2 481.4 217.4 495.4 216.0 509.3 C 216.0 495.5 216.0 481.7 216.1 467.9 Z" />
<path fill="#0f0f0f" stroke="#0f0f0f" stroke-width="0.09375" opacity="0.25" d=" M 42.3 470.0 L 43.0 469.5 C 43.1 482.4 43.5 495.4 42.0 508.4 L 42.0 507.6 C 42.1 495.1 42.0 482.5 42.3 470.0 Z" />
<path fill="#202021" stroke="#202021" stroke-width="0.09375" opacity="0.50" d=" M 276.2 470.0 L 276.9 469.4 C 277.2 482.4 277.4 495.3 276.3 508.2 C 276.0 495.5 276.0 482.7 276.2 470.0 Z" />
<path fill="#101010" stroke="#101010" stroke-width="0.09375" opacity="0.25" d=" M 107.1 473.6 C 129.4 472.0 151.7 473.7 174.0 472.9 C 151.6 475.5 129.1 473.1 106.7 474.3 L 107.1 473.6 Z" />
<path fill="#141314" stroke="#141314" stroke-width="0.09375" opacity="0.31" d=" M 455.0 474.5 C 456.3 473.7 457.1 474.1 457.2 475.7 C 456.1 476.0 455.4 475.6 455.0 474.5 Z" />
<path fill="#212122" stroke="#212122" stroke-width="0.09375" opacity="0.52" d=" M 105.8 475.7 C 106.7 476.7 106.9 477.8 106.3 479.0 C 105.1 478.0 105.0 476.9 105.8 475.7 Z" />
<path fill="#2c2b2d" stroke="#2c2b2d" stroke-width="0.09375" opacity="0.69" d=" M 457.1 476.8 C 458.7 477.0 459.1 477.9 458.2 479.3 C 457.2 478.7 456.8 477.9 457.1 476.8 Z" />
<path fill="#151515" stroke="#151515" stroke-width="0.09375" opacity="0.33" d=" M 449.3 477.8 C 450.2 478.1 450.8 478.9 451.0 479.9 C 449.3 480.1 448.7 479.4 449.3 477.8 Z" />
<path fill="#141314" stroke="#141314" stroke-width="0.09375" opacity="0.31" d=" M 451.4 480.7 C 452.2 481.2 452.7 482.0 453.0 483.0 C 451.1 483.1 450.6 482.4 451.4 480.7 Z" />
<path fill="#151515" stroke="#151515" stroke-width="0.09375" opacity="0.33" d=" M 431.4 487.3 C 430.8 485.6 431.3 484.8 433.1 485.1 C 432.9 486.0 432.3 486.8 431.4 487.3 Z" />
<path fill="#0c0c0c" stroke="#0c0c0c" stroke-width="0.09375" opacity="0.19" d=" M 165.2 491.3 C 165.1 489.7 165.8 488.9 167.2 488.9 C 167.2 490.2 166.6 491.0 165.2 491.3 Z" />
<path fill="#151515" stroke="#151515" stroke-width="0.09375" opacity="0.33" d=" M 111.8 490.8 C 113.2 491.0 114.0 491.8 114.1 493.3 C 112.7 493.0 111.9 492.2 111.8 490.8 Z" />
<path fill="#1a1a1b" stroke="#1a1a1b" stroke-width="0.09375" opacity="0.41" d=" M 157.7 498.8 C 160.1 496.5 162.4 494.1 164.8 491.8 C 162.6 494.3 160.5 496.9 157.7 498.8 Z" />
<path fill="#2d2d2e" stroke="#2d2d2e" stroke-width="0.09375" opacity="0.71" d=" M 434.9 494.0 C 435.1 493.0 435.6 492.2 436.5 491.7 C 437.2 493.3 436.7 494.1 434.9 494.0 Z" />
<path fill="#151515" stroke="#151515" stroke-width="0.09375" opacity="0.33" d=" M 468.0 493.5 C 469.4 492.7 470.2 493.1 470.3 494.7 C 469.2 495.0 468.4 494.6 468.0 493.5 Z" />
<path fill="#2d2d2e" stroke="#2d2d2e" stroke-width="0.09375" opacity="0.71" d=" M 460.4 493.7 C 461.3 494.2 461.9 495.0 462.1 496.0 C 460.3 496.1 459.8 495.4 460.4 493.7 Z" />
<path fill="#151515" stroke="#151515" stroke-width="0.09375" opacity="0.33" d=" M 433.1 497.1 C 433.3 496.1 433.8 495.3 434.6 494.8 C 435.4 496.4 434.9 497.2 433.1 497.1 Z" />
<path fill="#2d2d2e" stroke="#2d2d2e" stroke-width="0.09375" opacity="0.71" d=" M 470.1 495.8 C 471.7 496.1 472.1 496.9 471.2 498.3 C 470.2 497.7 469.8 496.9 470.1 495.8 Z" />
<path fill="#0d0d0d" stroke="#0d0d0d" stroke-width="0.09375" opacity="0.21" d=" M 117.8 496.8 C 119.5 497.1 121.5 498.3 121.1 500.3 C 119.4 499.8 118.4 498.3 117.8 496.8 Z" />
<path fill="#151515" stroke="#151515" stroke-width="0.09375" opacity="0.33" d=" M 462.4 496.7 C 463.2 497.2 463.8 498.0 464.0 499.0 C 462.2 499.2 461.7 498.4 462.4 496.7 Z" />
<path fill="#151515" stroke="#151515" stroke-width="0.09375" opacity="0.33" d=" M 431.0 500.0 C 431.3 499.0 431.9 498.3 432.8 497.8 C 433.4 499.5 432.8 500.2 431.0 500.0 Z" />
<path fill="#101010" stroke="#101010" stroke-width="0.09375" opacity="0.25" d=" M 109.5 500.4 C 110.8 500.0 111.8 500.5 112.3 502.0 C 110.9 502.2 110.0 501.6 109.5 500.4 Z" />
<path fill="#0e0e0e" stroke="#0e0e0e" stroke-width="0.09375" opacity="0.22" d=" M 165.0 503.4 C 165.5 501.7 166.7 500.0 168.7 500.2 C 168.3 502.0 166.6 502.9 165.0 503.4 Z" />
<path fill="#121213" stroke="#121213" stroke-width="0.09375" opacity="0.29" d=" M 420.3 503.2 C 419.7 501.4 420.3 500.7 422.1 501.1 C 421.8 502.0 421.2 502.7 420.3 503.2 Z" />
<path fill="#323233" stroke="#323233" stroke-width="0.09375" opacity="0.78" d=" M 114.2 502.7 C 115.9 502.9 117.2 504.5 116.9 506.2 C 115.4 505.7 114.2 504.3 114.2 502.7 Z" />
<path fill="#1a1a1b" stroke="#1a1a1b" stroke-width="0.09375" opacity="0.42" d=" M 130.8 504.9 C 131.8 503.8 132.8 503.7 134.1 504.6 C 133.0 505.5 132.0 505.6 130.8 504.9 Z" />
<path fill="#181818" stroke="#181818" stroke-width="0.09375" opacity="0.38" d=" M 142.0 504.5 C 143.3 503.7 144.3 503.9 145.2 505.1 C 144.0 505.7 142.9 505.5 142.0 504.5 Z" />
<path fill="#0c0c0c" stroke="#0c0c0c" stroke-width="0.09375" opacity="0.19" d=" M 418.8 508.6 C 416.6 508.7 417.6 504.7 419.5 505.8 C 419.3 506.7 419.1 507.6 418.8 508.6 Z" />
<path fill="#2d2c2e" stroke="#2d2c2e" stroke-width="0.09375" opacity="0.70" d=" M 475.6 505.7 C 477.6 504.9 478.1 509.0 476.0 508.6 C 475.8 507.6 475.7 506.6 475.6 505.7 Z" />
<path fill="#313032" stroke="#313032" stroke-width="0.09375" opacity="0.76" d=" M 35.8 506.8 C 36.4 507.8 37.1 508.8 36.7 510.0 C 34.9 510.4 34.3 507.4 35.8 506.8 Z" />
<path fill="#151515" stroke="#151515" stroke-width="0.09375" opacity="0.33" d=" M 375.0 508.9 L 375.1 508.1 C 375.6 508.4 376.7 508.9 377.2 509.1 C 376.4 510.4 375.7 510.3 375.0 508.9 Z" />
<path fill="#2d2d2e" stroke="#2d2d2e" stroke-width="0.09375" opacity="0.71" d=" M 423.7 509.8 C 423.7 508.7 424.3 508.0 425.3 507.6 C 425.9 509.2 425.4 509.9 423.7 509.8 Z" />
<path fill="#191919" stroke="#191919" stroke-width="0.09375" opacity="0.40" d=" M 212.5 509.8 C 213.0 509.9 214.2 510.0 214.7 510.0 C 215.2 511.8 211.7 511.6 212.5 509.8 Z" />
<path fill="#181818" stroke="#181818" stroke-width="0.09375" opacity="0.38" d=" M 331.1 510.1 C 331.7 510.0 332.8 509.7 333.4 509.6 C 334.4 511.1 330.9 512.0 331.1 510.1 Z" />
<path fill="#191919" stroke="#191919" stroke-width="0.09375" opacity="0.40" d=" M 472.4 510.0 C 473.0 509.9 474.1 509.8 474.7 509.7 C 475.5 511.3 472.0 511.9 472.4 510.0 Z" />
<path fill="#282729" stroke="#282729" stroke-width="0.09375" opacity="0.62" d=" M 129.9 511.3 C 131.2 510.4 132.2 510.6 133.0 512.0 L 130.3 512.0 L 129.9 511.3 Z" />
/*made from the visual identity guide Ethereum, 1.0.0 from 2015, author of this vector Everton Melo*/
</svg>
