<svg xmlns="http://www.w3.org/2000/svg" width="13" height="12" viewBox="0 0 13 12" fill="currentcolor">
  <path d="M11.1871 4.47232C11.1844 4.47267 11.1818 4.472 11.1796 4.47047C11.1774 4.46894 11.1759 4.46667 11.1753 4.46408C10.9114 3.42427 10.3084 2.50212 9.46165 1.84344C8.61494 1.18476 7.57278 0.827148 6.5 0.827148C5.42725 0.827148 4.38509 1.18476 3.53835 1.84344C2.69162 2.50212 2.08862 3.42427 1.82471 4.46408C1.82414 4.46667 1.82262 4.46894 1.82044 4.47047C1.81826 4.472 1.81558 4.47267 1.81295 4.47232C1.49412 4.47232 0.5 4.51349 0.5 5.3582C0.5 6.36526 0.617651 7.24055 1.20589 7.74879C1.46 7.96643 1.88942 8.01938 2.29648 8.00996C2.55103 8.00181 2.80464 7.97506 3.0553 7.92996C3.05727 7.92981 3.05916 7.9291 3.06076 7.92793C3.06235 7.92675 3.06359 7.92518 3.06432 7.92334C3.06506 7.92149 3.06526 7.91949 3.06492 7.91753C3.06457 7.91557 3.06368 7.91377 3.06236 7.91232C2.61816 7.24102 2.38164 6.45373 2.38236 5.64879C2.38236 5.63702 2.38236 5.62408 2.38236 5.61232C2.38236 4.52024 2.81618 3.47289 3.58839 2.70068C4.36058 1.92847 5.40796 1.49465 6.5 1.49465C7.59207 1.49465 8.63941 1.92847 9.41161 2.70068C10.1838 3.47289 10.6176 4.52024 10.6176 5.61232C10.6176 5.62408 10.6176 5.63702 10.6176 5.64879C10.6184 6.45373 10.3818 7.24102 9.93765 7.91232C9.93631 7.91377 9.93545 7.91557 9.9351 7.91753C9.93474 7.91949 9.93494 7.92149 9.93568 7.92334C9.93643 7.92518 9.93764 7.92675 9.93925 7.92793C9.94086 7.9291 9.94274 7.92981 9.9447 7.92996C10.1954 7.97506 10.449 8.00181 10.7035 8.00996C11.1106 8.01938 11.54 7.96643 11.7941 7.74879C12.3824 7.24643 12.5 6.36526 12.5 5.3582C12.5 4.51349 11.5059 4.47232 11.1871 4.47232Z"/>
  <path d="M6.50085 9.0609L3.37144 8.01737C3.36885 8.01639 3.36599 8.01635 3.36336 8.01725C3.36072 8.01815 3.3585 8.02 3.35709 8.02239C3.35568 8.02478 3.35517 8.0276 3.35564 8.03035C3.35611 8.03309 3.35754 8.03556 3.35967 8.03737L6.49262 11.1703C6.49481 11.1725 6.49775 11.1737 6.50085 11.1737C6.50391 11.1737 6.50689 11.1725 6.50909 11.1703L9.64203 8.03737C9.64415 8.03556 9.6456 8.03309 9.64607 8.03035C9.64654 8.0276 9.64599 8.02478 9.64462 8.02239C9.64321 8.02 9.64097 8.01815 9.63834 8.01725C9.63572 8.01635 9.63285 8.01639 9.63027 8.01737L6.50085 9.0609Z"/>
  <path d="M9.28454 5.8722L10.0281 5.64867C10.0307 5.64836 10.0331 5.6471 10.0348 5.64518C10.0365 5.64322 10.0375 5.64067 10.0375 5.63808C10.0354 5.36283 10.0011 5.08883 9.93513 4.82161C9.9345 4.81918 9.93313 4.81698 9.93124 4.8153C9.92936 4.81365 9.92705 4.81255 9.92454 4.8122L9.16807 4.74397C9.1656 4.74397 9.1632 4.74318 9.1612 4.74173C9.1592 4.74028 9.15771 4.73824 9.15693 4.73589C9.15614 4.73357 9.15611 4.73102 9.15685 4.72867C9.1576 4.72632 9.15905 4.72424 9.16101 4.72279L9.72336 4.231C9.7245 4.22882 9.72509 4.2264 9.72509 4.22395C9.72509 4.22149 9.7245 4.21907 9.72336 4.21689C9.60877 3.96282 9.46462 3.72314 9.29395 3.50277C9.29211 3.50134 9.28983 3.50056 9.28748 3.50056C9.28516 3.50056 9.28289 3.50134 9.28101 3.50277L8.58571 3.73806C8.58352 3.73877 8.58116 3.73882 8.57893 3.73818C8.57669 3.73755 8.57469 3.73628 8.5732 3.73452C8.57167 3.73276 8.57073 3.7306 8.57046 3.72829C8.57018 3.726 8.57058 3.72366 8.57159 3.72159L8.87395 3.06041C8.87532 3.05832 8.87607 3.05586 8.87607 3.05336C8.87607 3.05085 8.87532 3.0484 8.87395 3.0463C8.66524 2.85739 8.43458 2.69426 8.18689 2.56041C8.18505 2.55898 8.18277 2.55821 8.18042 2.55821C8.1781 2.55821 8.17583 2.55898 8.17395 2.56041L7.64807 3.0463C7.64642 3.04791 7.64434 3.049 7.6421 3.04945C7.63983 3.04989 7.63748 3.04965 7.63536 3.04878C7.63324 3.0479 7.6314 3.04642 7.6301 3.04451C7.62881 3.04261 7.6281 3.04036 7.62806 3.03806L7.63865 2.33218C7.63877 2.32959 7.63803 2.32702 7.63654 2.3249C7.63505 2.32277 7.63293 2.32119 7.63042 2.32041C7.36363 2.23071 7.08724 2.17267 6.80689 2.14747C6.8043 2.14736 6.80175 2.1481 6.79963 2.14959C6.79748 2.15108 6.79591 2.15323 6.79512 2.15571L6.51512 2.80747C6.51418 2.80947 6.51265 2.81114 6.51081 2.81232C6.50893 2.81349 6.50677 2.81411 6.50453 2.81411C6.50234 2.81411 6.50018 2.81349 6.4983 2.81232C6.49642 2.81114 6.49493 2.80947 6.49395 2.80747L6.21512 2.15571C6.21395 2.15336 6.21206 2.15142 6.20975 2.15016C6.20744 2.1489 6.20481 2.14837 6.20218 2.14865C5.92171 2.17363 5.64524 2.23208 5.37865 2.32277C5.37638 2.32381 5.37438 2.32546 5.37293 2.32752C5.37148 2.32959 5.37061 2.33201 5.37042 2.33453L5.37983 3.0463C5.38022 3.04863 5.37983 3.05102 5.37873 3.0531C5.37759 3.05518 5.37583 3.05682 5.37363 3.05777C5.37148 3.05871 5.36904 3.05891 5.36677 3.05832C5.3645 3.05774 5.36246 3.0564 5.36101 3.05453L4.82806 2.56159C4.82598 2.56023 4.82351 2.5595 4.821 2.5595C4.81849 2.5595 4.81606 2.56023 4.81395 2.56159C4.56665 2.69541 4.33634 2.85855 4.12806 3.04747C4.12669 3.04958 4.12598 3.05203 4.12598 3.05453C4.12598 3.05704 4.12669 3.05949 4.12806 3.06159L4.43277 3.72042C4.43348 3.7226 4.43355 3.72491 4.43304 3.72714C4.43253 3.72936 4.43148 3.73142 4.42991 3.73309C4.42838 3.73476 4.42638 3.736 4.42422 3.73666C4.42202 3.73733 4.41971 3.73741 4.41747 3.73689L3.72336 3.50159C3.72128 3.50023 3.71881 3.4995 3.7163 3.4995C3.71379 3.4995 3.71136 3.50023 3.70924 3.50159C3.53979 3.72253 3.39685 3.96261 3.28337 4.21689C3.282 4.21899 3.28127 4.22144 3.28127 4.22395C3.28127 4.22645 3.282 4.22891 3.28337 4.231L3.84689 4.72397C3.84846 4.72553 3.84955 4.72749 3.85002 4.72965C3.85053 4.73181 3.85042 4.73408 3.84967 4.73616C3.84893 4.73824 3.84759 4.74008 3.84587 4.74146C3.84414 4.74287 3.84206 4.74369 3.83983 4.74397L3.0869 4.81455C3.08451 4.81467 3.08221 4.81553 3.08032 4.81698C3.07842 4.81848 3.07703 4.82048 3.07631 4.82279C3.00878 5.08981 2.97285 5.36385 2.96925 5.63926C2.96913 5.64185 2.96987 5.6444 2.97136 5.64651C2.97285 5.64867 2.97501 5.65024 2.97749 5.65102L3.72218 5.88397C3.72418 5.88491 3.72587 5.8864 3.72704 5.88828C3.72822 5.89016 3.72885 5.89232 3.72885 5.89455C3.72885 5.89675 3.72822 5.89891 3.72704 5.90079C3.72587 5.90267 3.72418 5.90416 3.72218 5.90514L3.03513 6.28867C3.0336 6.29283 3.0336 6.29742 3.03513 6.30161C3.086 6.57546 3.16892 6.8424 3.28219 7.09691C3.31984 7.18044 3.36102 7.26161 3.39983 7.34161C3.40214 7.34232 3.40461 7.34232 3.40689 7.34161L6.49865 8.37338L9.59748 7.34044C9.59901 7.33997 9.60042 7.33922 9.60163 7.3382C9.60285 7.33718 9.60383 7.33593 9.60454 7.33456C9.77983 7.00734 9.90328 6.65491 9.97042 6.28985C9.97101 6.28734 9.97073 6.28471 9.96968 6.28236C9.96862 6.28004 9.96681 6.27812 9.96454 6.27691L9.27866 5.89338C9.27673 5.89193 9.27532 5.88997 9.27454 5.88773C9.27375 5.8855 9.27367 5.88302 9.27434 5.88075C9.27497 5.87844 9.27626 5.8764 9.27811 5.87487C9.27995 5.87334 9.28218 5.8724 9.28454 5.8722Z"/>
</svg>