<svg xmlns="http://www.w3.org/2000/svg" width="15" height="17" viewBox="0 0 15 17" fill="none">
  <path d="M6.0003 0.778304C6.1825 1.00044 6.2447 1.33521 6.0807 1.63613C5.5201 2.66474 5.20151 3.84302 5.20151 5.09686C5.20151 9.1173 8.4803 12.3727 12.5202 12.3727C13.0466 12.3727 13.5594 12.3175 14.0534 12.2129C14.3912 12.1413 14.6984 12.294 14.8631 12.5286C15.033 12.7707 15.0686 13.1318 14.8318 13.4224C13.3034 15.2985 10.9648 16.5 8.34357 16.5C3.73342 16.5 0 12.7863 0 8.21002C0 4.7658 2.11415 1.81197 5.12354 0.560088C5.47124 0.415449 5.81229 0.549093 6.0003 0.778304ZM4.85797 1.81064C2.575 3.04229 1.02491 5.44609 1.02491 8.21002C1.02491 12.2305 4.30371 15.4859 8.34357 15.4859C10.3796 15.4859 12.2216 14.6598 13.5491 13.3244C13.2118 13.3656 12.8684 13.3868 12.5202 13.3868C7.91002 13.3868 4.17659 9.67319 4.17659 5.09686C4.17659 3.93014 4.41946 2.81873 4.85797 1.81064Z" fill="currentcolor"/>
</svg>