<svg width="97" height="30" viewBox="0 0 97 30" fill="currentcolor" xmlns="http://www.w3.org/2000/svg">
<path d="M29.9551 10.5C29.9484 10.5009 29.9416 10.4992 29.936 10.4953C29.9305 10.4914 29.9266 10.4856 29.9251 10.479C29.2522 7.82748 27.7145 5.476 25.5553 3.79638C23.3962 2.11675 20.7387 1.20483 18.0031 1.20483C15.2676 1.20483 12.6101 2.11675 10.4509 3.79638C8.29174 5.476 6.75409 7.82748 6.08113 10.479C6.07968 10.4856 6.07579 10.4914 6.07023 10.4953C6.06467 10.4992 6.05785 10.5009 6.05113 10.5C5.23813 10.5 2.70312 10.605 2.70312 12.759C2.70312 15.327 3.00313 17.559 4.50313 18.855C5.15113 19.41 6.24613 19.545 7.28413 19.521C7.93324 19.5002 8.57996 19.432 9.21913 19.317C9.22416 19.3166 9.22898 19.3148 9.23305 19.3118C9.23712 19.3088 9.24027 19.3048 9.24214 19.3001C9.24401 19.2954 9.24454 19.2903 9.24365 19.2853C9.24276 19.2803 9.2405 19.2757 9.23713 19.272C8.10443 17.5602 7.50131 15.5526 7.50313 13.5C7.50313 13.47 7.50313 13.437 7.50313 13.407C7.50313 10.6222 8.60937 7.95147 10.5785 5.98234C12.5476 4.01321 15.2184 2.90696 18.0031 2.90696C20.7879 2.90696 23.4586 4.01321 25.4277 5.98234C27.3969 7.95147 28.5031 10.6222 28.5031 13.407C28.5031 13.437 28.5031 13.47 28.5031 13.5C28.5049 15.5526 27.9018 17.5602 26.7691 19.272C26.7657 19.2757 26.7635 19.2803 26.7626 19.2853C26.7617 19.2903 26.7622 19.2954 26.7641 19.3001C26.766 19.3048 26.7691 19.3088 26.7732 19.3118C26.7773 19.3148 26.7821 19.3166 26.7871 19.317C27.4263 19.432 28.073 19.5002 28.7221 19.521C29.7601 19.545 30.8551 19.41 31.5031 18.855C33.0031 17.574 33.3031 15.327 33.3031 12.759C33.3031 10.605 30.7681 10.5 29.9551 10.5Z"/>
<path d="M18.0051 22.2001L10.0251 19.5391C10.0185 19.5366 10.0112 19.5365 10.0045 19.5388C9.99776 19.5411 9.99211 19.5458 9.98852 19.5519C9.98492 19.558 9.98361 19.5652 9.98481 19.5722C9.98601 19.5792 9.98965 19.5855 9.99509 19.5901L17.9841 27.5791C17.9897 27.5846 17.9972 27.5877 18.0051 27.5877C18.0129 27.5877 18.0205 27.5846 18.0261 27.5791L26.0151 19.5901C26.0205 19.5855 26.0242 19.5792 26.0254 19.5722C26.0266 19.5652 26.0252 19.558 26.0217 19.5519C26.0181 19.5458 26.0124 19.5411 26.0057 19.5388C25.999 19.5365 25.9917 19.5366 25.9851 19.5391L18.0051 22.2001Z"/>
<path d="M25.104 14.0701L27 13.5001C27.0067 13.4993 27.0128 13.4961 27.0172 13.4912C27.0216 13.4862 27.0241 13.4797 27.024 13.4731C27.0188 12.7712 26.9312 12.0725 26.763 11.3911C26.7614 11.3849 26.7579 11.3793 26.7531 11.375C26.7483 11.3708 26.7424 11.368 26.736 11.3671L24.807 11.1931C24.8007 11.1931 24.7946 11.1911 24.7895 11.1874C24.7844 11.1837 24.7806 11.1785 24.7786 11.1725C24.7766 11.1666 24.7765 11.1601 24.7784 11.1541C24.7803 11.1481 24.784 11.1428 24.789 11.1391L26.223 9.88505C26.2259 9.87949 26.2274 9.87332 26.2274 9.86705C26.2274 9.86079 26.2259 9.85461 26.223 9.84905C25.9308 9.20119 25.5632 8.58999 25.128 8.02805C25.1233 8.0244 25.1175 8.02242 25.1115 8.02242C25.1056 8.02242 25.0998 8.0244 25.095 8.02805L23.322 8.62805C23.3164 8.62986 23.3104 8.62997 23.3047 8.62836C23.299 8.62675 23.2939 8.6235 23.2901 8.61901C23.2862 8.61453 23.2838 8.60901 23.2831 8.60314C23.2824 8.59728 23.2834 8.59133 23.286 8.58605L24.057 6.90005C24.0605 6.8947 24.0624 6.88844 24.0624 6.88205C24.0624 6.87566 24.0605 6.86941 24.057 6.86405C23.5248 6.38234 22.9366 5.96636 22.305 5.62505C22.3003 5.6214 22.2945 5.61942 22.2885 5.61942C22.2826 5.61942 22.2768 5.6214 22.272 5.62505L20.931 6.86405C20.9268 6.86816 20.9215 6.87095 20.9158 6.87208C20.91 6.8732 20.904 6.87261 20.8986 6.87037C20.8932 6.86814 20.8885 6.86436 20.8852 6.8595C20.8819 6.85464 20.8801 6.84892 20.88 6.84305L20.907 5.04305C20.9073 5.03644 20.9054 5.0299 20.9016 5.02448C20.8978 5.01905 20.8924 5.01503 20.886 5.01305C20.2057 4.7843 19.5009 4.63629 18.786 4.57205C18.7794 4.57175 18.7729 4.57365 18.7675 4.57744C18.762 4.58124 18.758 4.58673 18.756 4.59305L18.042 6.25505C18.0396 6.26013 18.0357 6.2644 18.031 6.2674C18.0262 6.27039 18.0207 6.27198 18.015 6.27198C18.0094 6.27198 18.0039 6.27039 17.9991 6.2674C17.9943 6.2644 17.9905 6.26013 17.988 6.25505L17.277 4.59305C17.274 4.58705 17.2692 4.58211 17.2633 4.5789C17.2574 4.57568 17.2507 4.57434 17.244 4.57505C16.5288 4.63875 15.8238 4.78781 15.144 5.01905C15.1382 5.02172 15.1331 5.02591 15.1294 5.03118C15.1257 5.03646 15.1235 5.04263 15.123 5.04905L15.147 6.86405C15.148 6.86999 15.147 6.8761 15.1442 6.8814C15.1413 6.88669 15.1368 6.89088 15.1312 6.8933C15.1257 6.89571 15.1195 6.89621 15.1137 6.89472C15.1079 6.89322 15.1027 6.88982 15.099 6.88505L13.74 5.62805C13.7347 5.62457 13.7284 5.62271 13.722 5.62271C13.7156 5.62271 13.7094 5.62457 13.704 5.62805C13.0734 5.96929 12.4861 6.38529 11.955 6.86705C11.9515 6.87241 11.9497 6.87866 11.9497 6.88505C11.9497 6.89144 11.9515 6.8977 11.955 6.90305L12.732 8.58305C12.7338 8.58861 12.734 8.59452 12.7327 8.6002C12.7314 8.60587 12.7287 8.61111 12.7247 8.61537C12.7208 8.61964 12.7157 8.62278 12.7102 8.62448C12.7046 8.62618 12.6987 8.62638 12.693 8.62505L10.923 8.02505C10.9177 8.02157 10.9114 8.01971 10.905 8.01971C10.8986 8.01971 10.8924 8.02157 10.887 8.02505C10.4549 8.58844 10.0904 9.20064 9.80103 9.84905C9.79755 9.85441 9.79569 9.86066 9.79569 9.86705C9.79569 9.87344 9.79755 9.8797 9.80103 9.88505L11.238 11.1421C11.242 11.1461 11.2448 11.1511 11.246 11.1566C11.2473 11.1621 11.247 11.1679 11.2451 11.1732C11.2432 11.1785 11.2398 11.1832 11.2354 11.1867C11.231 11.1903 11.2257 11.1924 11.22 11.1931L9.30003 11.3731C9.29393 11.3734 9.28807 11.3756 9.28325 11.3793C9.27842 11.3831 9.27486 11.3882 9.27303 11.3941C9.10083 12.075 9.00921 12.7738 9.00003 13.4761C8.99973 13.4827 9.00162 13.4892 9.00542 13.4946C9.00922 13.5001 9.01471 13.5041 9.02103 13.5061L10.92 14.1001C10.9251 14.1025 10.9294 14.1063 10.9324 14.1111C10.9354 14.1159 10.937 14.1214 10.937 14.1271C10.937 14.1327 10.9354 14.1382 10.9324 14.143C10.9294 14.1478 10.9251 14.1516 10.92 14.1541L9.16803 15.1321C9.16413 15.1427 9.16413 15.1544 9.16803 15.1651C9.29773 15.8634 9.50918 16.5441 9.79803 17.1931C9.89403 17.4061 9.99903 17.6131 10.098 17.8171C10.1039 17.8189 10.1102 17.8189 10.116 17.8171L18 20.4481L25.902 17.8141C25.9059 17.8129 25.9095 17.811 25.9126 17.8084C25.9157 17.8058 25.9182 17.8026 25.92 17.7991C26.367 16.9647 26.6818 16.066 26.853 15.1351C26.8545 15.1287 26.8538 15.122 26.8511 15.116C26.8484 15.1101 26.8438 15.1052 26.838 15.1021L25.089 14.1241C25.0841 14.1204 25.0805 14.1154 25.0785 14.1097C25.0765 14.104 25.0763 14.0977 25.078 14.0919C25.0796 14.086 25.0829 14.0808 25.0876 14.0769C25.0923 14.073 25.098 14.0706 25.104 14.0701Z"/>
<path d="M49.2046 21.5791V21.6361H47.7706L44.1706 16.3111H41.2636V21.6361H40.0156V8.79907H44.8666C47.1526 8.79907 48.9646 10.4401 48.9646 12.5731C48.9646 14.4991 47.6416 15.9331 45.5476 16.2541L49.2046 21.5791ZM44.8156 15.1801C46.6156 15.1801 47.7226 14.1211 47.7226 12.5911C47.7226 11.0611 46.5526 9.93007 44.8696 9.93007H41.2696V15.1801H44.8156Z"/>
<path d="M59.6485 20.5021V21.6361H51.8125V8.79907H59.4775V9.93007H53.0605V14.4991H58.7035V15.6001H53.0605V20.4901L59.6485 20.5021Z"/>
<path d="M75.6398 21.636H74.4398L73.2008 12.78C73.1345 12.3616 73.0905 11.94 73.0687 11.517C72.8227 11.931 72.5977 12.309 72.3697 12.669L68.7697 18.4649H68.4877L64.8877 12.63C64.6807 12.309 64.4527 11.931 64.2277 11.553C64.1887 11.988 64.1138 12.405 64.0568 12.78L62.8207 21.636H61.5938L63.4268 8.69995H63.8017L67.8248 15.231C68.0888 15.648 68.3528 16.0799 68.6168 16.5899C68.8808 16.0799 69.1448 15.6479 69.4088 15.2129L73.4498 8.69995H73.8007L75.6398 21.636Z"/>
<path d="M78.6406 8.79907H79.8856V21.6361H78.6406V8.79907Z"/>
<path d="M82.1562 21.6001L86.8963 14.9731L82.5553 8.83507V8.79907H84.0042L86.3832 12.1411C86.7972 12.7411 87.2323 13.3651 87.6463 14.0461C88.0813 13.3471 88.4952 12.7051 88.9122 12.1021L91.2522 8.80207H92.6682V8.83807L88.3303 14.9701L93.0702 21.6001V21.6391H91.6332L88.8792 17.7391C88.4622 17.1391 88.0272 16.5391 87.6312 15.8881C87.1992 16.5691 86.8002 17.1541 86.3682 17.7571L83.5933 21.6571H82.1562V21.6001Z"/>
</svg>
