<svg xmlns="http://www.w3.org/2000/svg" width="24" height="24" viewBox="0 0 24 24" fill="#333333">
  <path d="M21.3741 9.29033C21.3689 9.29104 21.3635 9.28971 21.3591 9.28665C21.3548 9.28359 21.3518 9.27904 21.3506 9.27386C20.8228 7.19424 19.6168 5.34994 17.9233 4.03259C16.2299 2.71523 14.1456 2 12 2C9.8545 2 7.77019 2.71523 6.07669 4.03259C4.38323 5.34994 3.17723 7.19424 2.64942 9.27386C2.64828 9.27904 2.64523 9.28359 2.64087 9.28665C2.63651 9.28971 2.63116 9.29104 2.62589 9.29033C1.98824 9.29033 0 9.37269 0 11.0621C0 13.0762 0.235302 14.8268 1.41177 15.8433C1.92001 16.2786 2.77883 16.3845 3.59295 16.3656C4.10206 16.3493 4.60929 16.2958 5.1106 16.2056C5.11454 16.2053 5.11832 16.2039 5.12152 16.2016C5.12471 16.1992 5.12718 16.1961 5.12865 16.1924C5.13011 16.1887 5.13053 16.1847 5.12983 16.1808C5.12913 16.1768 5.12736 16.1732 5.12472 16.1703C4.23632 14.8277 3.76329 13.2532 3.76472 11.6433C3.76472 11.6197 3.76472 11.5939 3.76472 11.5703C3.76472 9.38618 4.63236 7.29149 6.17677 5.74707C7.72117 4.20265 9.81591 3.335 12 3.335C14.1841 3.335 16.2788 4.20265 17.8232 5.74707C19.3677 7.29149 20.2353 9.38618 20.2353 11.5703C20.2353 11.5939 20.2353 11.6197 20.2353 11.6433C20.2367 13.2532 19.7637 14.8277 18.8753 16.1703C18.8726 16.1732 18.8709 16.1768 18.8702 16.1808C18.8695 16.1847 18.8699 16.1887 18.8714 16.1924C18.8729 16.1961 18.8753 16.1992 18.8785 16.2016C18.8817 16.2039 18.8855 16.2053 18.8894 16.2056C19.3907 16.2958 19.898 16.3493 20.4071 16.3656C21.2212 16.3845 22.08 16.2786 22.5882 15.8433C23.7647 14.8386 24 13.0762 24 11.0621C24 9.37269 22.0118 9.29033 21.3741 9.29033Z" />
  <path d="M12.0016 18.4668L5.74276 16.3797C5.73758 16.3777 5.73185 16.3777 5.7266 16.3795C5.72131 16.3813 5.71688 16.385 5.71406 16.3897C5.71124 16.3945 5.71021 16.4002 5.71116 16.4057C5.7121 16.4112 5.71495 16.4161 5.71922 16.4197L11.9851 22.6856C11.9895 22.6899 11.9954 22.6923 12.0016 22.6923C12.0077 22.6923 12.0137 22.6899 12.0181 22.6856L18.2839 16.4197C18.2882 16.4161 18.2911 16.4112 18.292 16.4057C18.293 16.4002 18.2919 16.3945 18.2891 16.3897C18.2863 16.385 18.2818 16.3813 18.2766 16.3795C18.2713 16.3777 18.2656 16.3777 18.2604 16.3797L12.0016 18.4668Z" />
  <path d="M17.5693 12.0903L19.0564 11.6433C19.0616 11.6427 19.0664 11.6402 19.0699 11.6363C19.0733 11.6324 19.0753 11.6273 19.0752 11.6221C19.0711 11.0716 19.0024 10.5236 18.8705 9.98917C18.8692 9.98431 18.8665 9.97992 18.8627 9.97654C18.859 9.97325 18.8543 9.97105 18.8493 9.97035L17.3364 9.83388C17.3314 9.83388 17.3267 9.83231 17.3227 9.82941C17.3187 9.8265 17.3157 9.82243 17.3141 9.81772C17.3125 9.81309 17.3125 9.80799 17.3139 9.80329C17.3154 9.79858 17.3183 9.79443 17.3223 9.79152L18.447 8.80795C18.4492 8.80359 18.4504 8.79875 18.4504 8.79384C18.4504 8.78893 18.4492 8.78408 18.447 8.77972C18.2178 8.27159 17.9295 7.79222 17.5881 7.35148C17.5845 7.34862 17.5799 7.34707 17.5752 7.34707C17.5706 7.34707 17.566 7.34862 17.5623 7.35148L16.1717 7.82207C16.1673 7.82349 16.1626 7.82358 16.1581 7.82231C16.1536 7.82105 16.1496 7.8185 16.1467 7.81498C16.1436 7.81147 16.1417 7.80714 16.1412 7.80253C16.1406 7.79794 16.1414 7.79327 16.1434 7.78913L16.7481 6.46678C16.7509 6.46258 16.7524 6.45767 16.7524 6.45266C16.7524 6.44765 16.7509 6.44275 16.7481 6.43854C16.3307 6.06073 15.8694 5.73447 15.374 5.46678C15.3703 5.46391 15.3658 5.46236 15.3611 5.46236C15.3565 5.46236 15.3519 5.46391 15.3481 5.46678L14.2964 6.43854C14.2931 6.44176 14.2889 6.44395 14.2845 6.44484C14.2799 6.44572 14.2752 6.44526 14.271 6.4435C14.2667 6.44175 14.263 6.43878 14.2605 6.43497C14.2579 6.43116 14.2565 6.42667 14.2564 6.42207L14.2776 5.01031C14.2778 5.00512 14.2763 4.99999 14.2733 4.99574C14.2703 4.99148 14.2661 4.98833 14.2611 4.98678C13.7275 4.80736 13.1747 4.69128 12.614 4.64089C12.6088 4.64066 12.6037 4.64215 12.5995 4.64512C12.5952 4.6481 12.5921 4.65241 12.5905 4.65736L12.0305 5.96089C12.0286 5.96488 12.0255 5.96823 12.0219 5.97058C12.0181 5.97293 12.0138 5.97417 12.0093 5.97417C12.0049 5.97417 12.0006 5.97293 11.9968 5.97058C11.9931 5.96823 11.9901 5.96488 11.9881 5.96089L11.4305 4.65736C11.4281 4.65266 11.4244 4.64878 11.4197 4.64627C11.4151 4.64374 11.4099 4.64269 11.4046 4.64325C10.8437 4.69321 10.2907 4.81012 9.75755 4.99148C9.753 4.99358 9.749 4.99686 9.7461 5.001C9.7432 5.00514 9.74147 5.00998 9.74108 5.01501L9.7599 6.43854C9.76069 6.4432 9.7599 6.44799 9.75771 6.45215C9.75543 6.4563 9.7519 6.45958 9.74751 6.46148C9.7432 6.46337 9.73833 6.46376 9.73378 6.4626C9.72923 6.46142 9.72516 6.45875 9.72225 6.45501L8.65637 5.46913C8.65221 5.4664 8.64727 5.46494 8.64225 5.46494C8.63723 5.46494 8.63237 5.4664 8.62814 5.46913C8.13355 5.73677 7.67292 6.06304 7.25637 6.44089C7.25363 6.4451 7.25221 6.45 7.25221 6.45501C7.25221 6.46002 7.25363 6.46493 7.25637 6.46913L7.86578 7.78678C7.86719 7.79114 7.86735 7.79577 7.86633 7.80023C7.86531 7.80468 7.86319 7.80879 7.86006 7.81213C7.857 7.81548 7.853 7.81794 7.84868 7.81927C7.84429 7.82061 7.83966 7.82076 7.83519 7.81972L6.44696 7.34913C6.4428 7.3464 6.43786 7.34494 6.43284 7.34494C6.42782 7.34494 6.42296 7.3464 6.41872 7.34913C6.07982 7.79101 5.79394 8.27116 5.56698 8.77972C5.56425 8.78392 5.56279 8.78883 5.56279 8.79384C5.56279 8.79885 5.56425 8.80376 5.56698 8.80795L6.69402 9.79388C6.69715 9.79701 6.69935 9.80094 6.70029 9.80525C6.70131 9.80956 6.70108 9.81411 6.69959 9.81827C6.6981 9.82243 6.69543 9.82611 6.69198 9.82886C6.68853 9.83168 6.68437 9.83333 6.6799 9.83388L5.17404 9.97505C5.16926 9.97529 5.16466 9.97701 5.16088 9.97992C5.15709 9.9829 5.1543 9.9869 5.15286 9.99152C5.0178 10.5256 4.94594 11.0736 4.93874 11.6245C4.93851 11.6296 4.93999 11.6347 4.94297 11.639C4.94595 11.6433 4.95026 11.6464 4.95522 11.648L6.44461 12.1139C6.44861 12.1158 6.45198 12.1187 6.45433 12.1225C6.45668 12.1263 6.45794 12.1306 6.45794 12.1351C6.45794 12.1394 6.45668 12.1438 6.45433 12.1475C6.45198 12.1513 6.44861 12.1543 6.44461 12.1562L5.07051 12.9233C5.06745 12.9316 5.06745 12.9408 5.07051 12.9492C5.17224 13.4969 5.33808 14.0307 5.56463 14.5398C5.63992 14.7068 5.72227 14.8692 5.7999 15.0292C5.80453 15.0306 5.80947 15.0306 5.81402 15.0292L11.9975 17.0927L18.1952 15.0268C18.1983 15.0259 18.2011 15.0244 18.2035 15.0223C18.2059 15.0203 18.2079 15.0178 18.2093 15.0151C18.5599 14.3606 18.8068 13.6558 18.9411 12.9256C18.9423 12.9206 18.9417 12.9154 18.9396 12.9107C18.9375 12.906 18.9339 12.9022 18.9293 12.8998L17.5576 12.1327C17.5537 12.1298 17.5509 12.1259 17.5493 12.1214C17.5478 12.1169 17.5476 12.112 17.5489 12.1074C17.5502 12.1028 17.5528 12.0987 17.5565 12.0957C17.5601 12.0926 17.5646 12.0907 17.5693 12.0903Z" />
</svg>