<svg xmlns="http://www.w3.org/2000/svg" width="16" height="9" viewBox="0 0 16 9" fill="none">
  <path d="M8 0C8.27614 0 8.5 0.223858 8.5 0.5V2.5C8.5 2.77614 8.27614 3 8 3C7.72386 3 7.5 2.77614 7.5 2.5V0.5C7.5 0.223858 7.72386 0 8 0Z" fill="currentcolor"/>
  <path d="M16 8C16 8.27614 15.7761 8.5 15.5 8.5H13.5C13.2239 8.5 13 8.27614 13 8C13 7.72386 13.2239 7.5 13.5 7.5H15.5C15.7761 7.5 16 7.72386 16 8Z" fill="currentcolor"/>
  <path d="M2.5 8.5C2.77614 8.5 3 8.27614 3 8C3 7.72386 2.77614 7.5 2.5 7.5H0.5C0.223858 7.5 0 7.72386 0 8C0 8.27614 0.223858 8.5 0.5 8.5H2.5Z" fill="currentcolor"/>
  <path d="M13.6569 2.34315C13.8521 2.53841 13.8521 2.85499 13.6569 3.05025L12.2426 4.46447C12.0474 4.65973 11.7308 4.65973 11.5355 4.46447C11.3403 4.2692 11.3403 3.95262 11.5355 3.75736L12.9497 2.34315C13.145 2.14788 13.4616 2.14788 13.6569 2.34315Z" fill="currentcolor"/>
  <path d="M3.75736 4.46447C3.95262 4.65973 4.26921 4.65973 4.46447 4.46447C4.65973 4.2692 4.65973 3.95262 4.46447 3.75736L3.05025 2.34314C2.85499 2.14788 2.53841 2.14788 2.34315 2.34314C2.14789 2.53841 2.14789 2.85499 2.34315 3.05025L3.75736 4.46447Z" fill="currentcolor"/>
  <path d="M8 4C5.79086 4 4 5.79086 4 8C4 8.27614 4.22386 8.5 4.5 8.5H11.5C11.7761 8.5 12 8.27614 12 8C12 5.79086 10.2091 4 8 4ZM8 5C9.4865 5 10.7205 6.08114 10.9585 7.5H5.04148C5.27952 6.08114 6.5135 5 8 5Z" fill="currentcolor"/>
</svg>