<svg width="49" height="33" viewBox="0 0 49 33" fill="none" xmlns="http://www.w3.org/2000/svg">
<path d="M36.4004 7.5C36.4004 7.5 40.6004 5.8 43.8004 8.3C47.0004 10.8 47.4004 13.3 47.4004 13.3L46.6004 16.5C46.6004 16.5 45.6004 17.9 45.2004 18.2C44.9004 18.5 43.1004 19.3 42.8004 19.5C42.5004 19.6 40.3004 20.2 39.8004 20.2C39.3004 20.2 37.7004 20.7 37.7004 20.7L36.7004 28.9L36.0004 31.8L32.5004 31.2L23.4004 30.7C23.4004 30.7 18.0004 30.9 17.7004 31C17.4004 31 14.6004 31.8 14.3004 31.8C14.1004 31.8 12.1004 31.6 12.1004 31.6V26.6L10.5004 20L7.40039 19.9L3.80039 18.5L1.90039 15.9C1.90039 15.9 1.50039 13.3 1.40039 13.1C1.40039 12.9 2.60039 9.8 2.60039 9.8C2.60039 9.8 4.10039 8.6 4.30039 8.5C4.50039 8.4 7.80039 7.3 7.80039 7.3H10.2004L12.2004 7.2L14.6004 4.2C14.6004 4.2 17.6004 2.3 18.0004 2.1C18.4004 1.9 20.2004 1.4 20.5004 1.3C20.8004 1.2 24.5004 1 24.5004 1C24.5004 1 26.9004 1.2 27.5004 1.3C28.1004 1.4 31.2004 2.5 31.4004 2.6C31.6004 2.7 33.3004 3.8 33.5004 4C33.7004 4.2 34.8004 5.1 35.0004 5.5C35.2004 5.9 36.4004 7.5 36.4004 7.5Z" fill="white" stroke="black" stroke-miterlimit="10"/>
<path d="M12 28.9C12 28.9 24.5 27 37 28.9L36.6 32C36.6 32 20.8 30.7 12.2 32L12 28.9Z" fill="#CCCCCC"/>
<path d="M13 18.4762C13 18.4762 0.894737 18.4762 2.05263 12L1 12.9524L1.73684 17.2381L4.47368 19.5238L11.1053 20L12.7895 19.2381" fill="#CCCCCC"/>
<path d="M35.4004 18.6C35.4004 18.6 46.9004 18.6 45.8004 11.8L46.8004 12.8L46.1004 17.3L43.5004 19.7L37.2004 20.2L35.6004 19.4" fill="#CCCCCC"/>
<path d="M18 19C18 19 23.9032 25.75 33 19H18Z" fill="#CCCCCC"/>
<path d="M35 20C35.4687 22.0417 35.6562 24.0833 35.4687 26.125L35.5625 27H36.6875C36.6875 27 37.7188 24.6667 37.7188 24.5694C37.7188 24.4722 38 20.7778 38 20.7778L35 20Z" fill="#CCCCCC"/>
<path d="M14 19C13.5312 21.3333 13.3437 23.6667 13.5312 26L13.4375 27H12.3125C12.3125 27 11.375 24.3333 11.2813 24.2222C11.1875 24.1111 11 19.8889 11 19.8889L14 19Z" fill="#CCCCCC"/>
<path d="M24.2992 30.6C20.3992 30.5 16.4992 30.9 12.5992 31.7C12.4992 31.7 12.4992 31.7 12.3992 31.7C12.2992 31.7 12.2992 31.7 12.1992 31.6C12.0992 31.6 12.0992 31.5 12.0992 31.5C12.0992 31.4 12.0992 31.4 11.9992 31.3C11.9992 27.7 11.4992 24.1 10.6992 20.5" stroke="black" stroke-width="1.5" stroke-miterlimit="10" stroke-linecap="round"/>
<path d="M24.1992 30.6C28.0992 30.5 31.9992 30.9 35.8992 31.7C35.9992 31.7 35.9992 31.7 36.0992 31.7C36.1992 31.7 36.1992 31.7 36.2992 31.6C36.3992 31.6 36.3992 31.5 36.3992 31.5C36.3992 31.4 36.3992 31.4 36.3992 31.3C36.3992 27.7 36.8992 24.1 37.6992 20.5" stroke="black" stroke-width="1.5" stroke-miterlimit="10" stroke-linecap="round"/>
<path d="M24.3004 26C20.1004 25.9 15.9004 26.3 11.9004 27.1" stroke="black" stroke-width="1.5" stroke-miterlimit="10" stroke-linecap="round"/>
<path d="M24.1992 26C28.3992 25.9 32.5992 26.3 36.6992 27.1" stroke="black" stroke-width="1.5" stroke-miterlimit="10" stroke-linecap="round"/>
<path d="M13.2 19.3C12.8 19.5 12.5 19.6 12.1 19.7C11.2 20 10.2 20.1 9.3 20.1H8.5C7 20 5.5 19.5 4.1 18.7L3.8 18.5C3 18 2.3 17.3 1.8 16.4C1.3 15.5 1 14.6 1 13.6C1 10.6 3.7 8 7.2 7.3C8.8 7 10.4 7 12 7.5" stroke="black" stroke-width="1.5" stroke-miterlimit="10" stroke-linecap="round"/>
<path d="M35.1992 19.3C35.5992 19.5 35.8992 19.6 36.2992 19.7C37.1992 20 38.1992 20.1 39.0992 20.1H39.7992C41.3992 20 42.8992 19.5 44.1992 18.7C44.2992 18.6 44.3992 18.6 44.4992 18.5C45.2992 18 45.9992 17.3 46.4992 16.4C46.9992 15.6 47.2992 14.6 47.2992 13.6C47.2992 10.6 44.6992 8 41.0992 7.3C40.3992 7.2 39.7992 7.1 39.0992 7.1C38.1992 7.1 37.1992 7.2 36.2992 7.5" stroke="black" stroke-width="1.5" stroke-miterlimit="10" stroke-linecap="round"/>
<path d="M40.2008 11.5H39.6008C38.9008 11.5 38.2008 11.2 37.7008 10.8C37.1008 10.3 37.1008 9.1 36.8008 8.5C36.6008 8.2 36.3008 7.4 36.3008 7.3" stroke="black" stroke-width="1.5" stroke-miterlimit="10" stroke-linecap="round"/>
<path d="M12.0996 7.5C13.8996 3.7 18.6996 1 24.1996 1C29.6996 1 34.4996 3.7 36.2996 7.5" stroke="black" stroke-width="1.5" stroke-miterlimit="10" stroke-linecap="round"/>
<path d="M32.7004 18.5C30.3004 19.3 27.9004 19.7 25.4004 19.7C23.0004 19.8 20.6004 19.4 18.4004 18.6" stroke="black" stroke-width="1.5" stroke-miterlimit="10" stroke-linecap="round"/>
</svg>